<svg width="458" height="631" viewBox="0 0 458 631" fill="none" xmlns="http://www.w3.org/2000/svg">
<rect x="0.5" y="0.5" width="267" height="110" stroke="#f7aa11"></rect>
<rect x="0.5" y="174.5" width="285" height="110" stroke="#f7aa11"></rect>
<rect x="183.5" y="174.5" width="274" height="110" fill="#f7aa11" stroke="#f7aa11"></rect>
<rect x="0.5" y="347.5" width="285" height="110" stroke="#f7aa11"></rect>
<rect x="183.5" y="347.5" width="274" height="110" fill="#f7aa11" stroke="#f7aa11"></rect>
<rect x="183.5" y="520.5" width="274" height="110" fill="#f7aa11" stroke="#f7aa11"></rect>
<mask id="mask0_1207_31853" style="mask-type:alpha" maskUnits="userSpaceOnUse" x="0" y="111" width="196" height="63">
<rect y="111" width="196" height="63" fill="#D9D9D9"></rect>
</mask>
<g mask="url(#mask0_1207_31853)">
<path d="M112.5 110H0L185 274V173.832L112.5 110Z" stroke="#f7aa11"></path>
</g>
<mask id="mask1_1207_31853" style="mask-type:alpha" maskUnits="userSpaceOnUse" x="268" y="0" width="190" height="174">
<rect x="268" width="190" height="174" fill="#D9D9D9"></rect>
</mask>
<g mask="url(#mask1_1207_31853)">
<path d="M266 -0.5V109L457 274V173.832L266 -0.5Z" stroke="#f7aa11"></path>
</g>
<mask id="mask2_1207_31853" style="mask-type:alpha" maskUnits="userSpaceOnUse" x="0" y="285" width="196" height="62">
<rect y="285" width="196" height="62" fill="#D9D9D9"></rect>
</mask>
<g mask="url(#mask2_1207_31853)">
<path d="M112.5 284H0L185 448V347.832L112.5 284Z" stroke="#f7aa11"></path>
</g>
<mask id="mask3_1207_31853" style="mask-type:alpha" maskUnits="userSpaceOnUse" x="273" y="285" width="185" height="62">
<rect x="273" y="285" width="185" height="62" fill="#D9D9D9"></rect>
</mask>
<g mask="url(#mask3_1207_31853)">
<path d="M385.5 284H273L458 448V347.832L385.5 284Z" stroke="#f7aa11"></path>
</g>
<mask id="mask4_1207_31853" style="mask-type:alpha" maskUnits="userSpaceOnUse" x="273" y="458" width="185" height="62">
<rect x="273" y="458" width="185" height="62" fill="#D9D9D9"></rect>
</mask>
<g mask="url(#mask4_1207_31853)">
<path d="M385.5 457H273L458 621V520.832L385.5 457Z" stroke="#f7aa11"></path>
</g>
<mask id="mask5_1207_31853" style="mask-type:alpha" maskUnits="userSpaceOnUse" x="0" y="458" width="222" height="173">
<rect y="458" width="222" height="173" fill="#D9D9D9"></rect>
</mask>
<g mask="url(#mask5_1207_31853)">
<path d="M115.5 457H0L185 632V521.832L115.5 457Z" stroke="#f7aa11"></path>
</g>
</svg>