<svg width="292" height="486" viewBox="0 0 292 486" fill="none" xmlns="http://www.w3.org/2000/svg">
				<mask id="path-1-inside-1_1207_31801" fill="white">
					<path fill-rule="evenodd" clip-rule="evenodd" d="M292 0H0V114H292V0ZM292 186H0V300H292V186ZM0 372H292V486H0V372Z"></path>
				</mask>
				<path fill-rule="evenodd" clip-rule="evenodd" d="M292 0H0V114H292V0ZM292 186H0V300H292V186ZM0 372H292V486H0V372Z" fill="#FD6A3C"></path>
				<path d="M0 0V-1H-1V0H0ZM292 0H293V-1H292V0ZM0 114H-1V115H0V114ZM292 114V115H293V114H292ZM0 186V185H-1V186H0ZM292 186H293V185H292V186ZM0 300H-1V301H0V300ZM292 300V301H293V300H292ZM292 372H293V371H292V372ZM0 372V371H-1V372H0ZM292 486V487H293V486H292ZM0 486H-1V487H0V486ZM0 1H292V-1H0V1ZM1 114V0H-1V114H1ZM292 113H0V115H292V113ZM291 0V114H293V0H291ZM0 187H292V185H0V187ZM1 300V186H-1V300H1ZM292 299H0V301H292V299ZM291 186V300H293V186H291ZM292 371H0V373H292V371ZM293 486V372H291V486H293ZM0 487H292V485H0V487ZM-1 372V486H1V372H-1Z" fill="#FD6A3C" mask="url(#path-1-inside-1_1207_31801)"></path>
			</svg>